<svg xmlns="http://www.w3.org/2000/svg" width="725" height="725" viewBox="0 0 725 725" fill="none">
<g clip-path="url(#clip0_445_5647)">
<path d="M339.008 446.66L363.392 698.508C363.447 699.077 363.663 699.62 364.016 700.07C364.369 700.521 364.843 700.861 365.384 701.051C365.924 701.241 366.507 701.272 367.064 701.141C367.621 701.01 368.129 700.722 368.528 700.312C369.007 699.819 369.319 699.163 369.372 698.429L387.081 446.045C371.15 448.322 354.992 448.528 339.008 446.66ZM285.382 432.003L301.303 596.426C301.357 596.996 301.574 597.538 301.927 597.989C302.28 598.44 302.754 598.78 303.294 598.97C303.834 599.159 304.417 599.19 304.975 599.059C305.532 598.928 306.04 598.641 306.439 598.23C306.918 597.738 307.23 597.081 307.282 596.348L318.044 442.985C306.838 440.352 295.903 436.675 285.382 432.003ZM411.088 440.985L425.705 591.952C425.775 592.703 426.124 593.4 426.685 593.905C427.246 594.41 427.976 594.685 428.731 594.675C429.485 594.665 430.208 594.371 430.755 593.852C431.303 593.333 431.634 592.627 431.684 591.874L443.139 428.637C432.863 433.742 422.133 437.876 411.088 440.985ZM493.231 392.094C485.485 400.048 477.192 407.152 468.467 413.41L480.068 533.225C480.138 533.977 480.487 534.674 481.048 535.179C481.609 535.684 482.339 535.958 483.094 535.949C483.848 535.939 484.571 535.645 485.118 535.126C485.666 534.607 485.997 533.9 486.047 533.148L496.162 389.009C495.198 390.043 494.224 391.075 493.231 392.094ZM231.625 395.555C229.686 393.667 227.808 391.74 225.97 389.789L239.616 530.731C239.671 531.301 239.888 531.843 240.24 532.294C240.593 532.744 241.068 533.085 241.608 533.274C242.148 533.464 242.731 533.495 243.288 533.364C243.845 533.233 244.353 532.945 244.752 532.535C245.232 532.043 245.543 531.386 245.596 530.653L253.781 414.011C245.928 408.443 238.52 402.272 231.625 395.555Z" fill="#2FC192"/>
<path d="M493.948 392.791C565.618 319.199 564.06 201.441 490.468 129.771C416.875 58.1005 299.117 59.6585 227.447 133.251C155.777 206.843 157.335 324.601 230.927 396.271C304.519 467.942 422.277 466.384 493.948 392.791Z" fill="white"/>
<path d="M308.177 441.476L334.824 421.572C304.558 413.737 275.858 398.153 251.858 374.779C249.573 372.554 247.363 370.283 245.216 367.972L234.028 362.338L225.283 390.516C227.123 392.475 229.005 394.393 230.927 396.271C253.411 418.168 280.022 433.217 308.177 441.476ZM203.317 188.511L189.18 190.942C179.477 214.048 174.668 238.699 174.711 263.332L199.877 281.113C193.253 250.558 194.386 218.639 203.317 188.511ZM438.751 431.891C458.834 422.613 477.593 409.584 493.948 392.791C497.472 389.172 500.812 385.445 503.981 381.624C480.766 401.943 453.661 415.522 425.247 422.349L438.751 431.891Z" fill="#D9EAFC"/>
<path d="M456.408 133.355L484.173 123.926C448.047 91.8082 402.518 76.2299 357.27 77.0626L380.638 108.347L278.702 130.782L284.107 93.4702C263.471 102.785 244.199 116.049 227.447 133.251C210.695 150.452 197.945 170.068 189.179 190.942L226.335 184.552L206.805 286.008L174.71 263.333C174.789 309.147 191.69 354.891 225.282 390.517L234.027 362.339L341.608 416.504L308.176 441.476C351.145 454.083 397.716 450.848 438.751 431.891L416.096 415.886L514.866 314.467L531.503 336.741C549.413 295.219 551.452 248.565 537.738 205.921L513.675 239.979L456.408 133.355ZM506.602 249.995L491.861 270.861L431.745 271.655L400.346 211.998L416.902 146.773L445.874 136.934L506.602 249.995ZM387.845 117.996L406.534 143.016L390.608 205.767L321.905 217.582L273.024 169.978L277.021 142.385L387.845 117.996ZM237.892 182.565L265.369 177.84L314.248 225.443L304.294 294.161L242.876 311.493L216.642 292.957L237.892 182.565ZM237.326 351.713L246.595 321.846L310.403 303.839L370.625 333.526L371.429 394.229L351.435 409.165L237.326 351.713ZM407.023 409.475L382.373 392.061L381.586 332.558L430.19 282.65L490.505 281.853L508.217 305.566L407.022 409.474L407.023 409.475Z" fill="#053597"/>
</g>
<defs>
<clipPath id="clip0_445_5647">
<rect width="512" height="512" fill="white" transform="translate(0 366.797) rotate(-45.758)"/>
</clipPath>
</defs>
</svg>