<svg width="88" height="86" viewBox="0 0 88 86" fill="none" xmlns="http://www.w3.org/2000/svg">
<g clip-path="url(#clip0_2856_9192)">
<path d="M45.3889 80.6061C61.5509 80.6061 74.6528 67.5128 74.6528 51.3614C74.6528 35.21 61.5509 22.1167 45.3889 22.1167C29.2269 22.1167 16.125 35.21 16.125 51.3614C16.125 67.5128 29.2269 80.6061 45.3889 80.6061Z" fill="#2FC191"/>
<path d="M43.0424 66.9169L29.2061 56.1386L33.1411 51.0888L41.6368 57.7079L55.6606 37.4719L60.9226 41.1189L43.0424 66.9169Z" fill="#F7F7F7"/>
</g>
<circle cx="25.979" cy="2.09028" r="2.09028" fill="#9FE2CC"/>
<circle cx="78.2362" cy="23.2914" r="4.18056" fill="#9FE2CC"/>
<circle cx="85.104" cy="69.5767" r="2.6875" fill="#9FE2CC"/>
<circle cx="13.4375" cy="83.3125" r="2.6875" fill="#9FE2CC"/>
<circle cx="5.375" cy="37.625" r="5.375" fill="#9FE2CC"/>
<defs>
<clipPath id="clip0_2856_9192">
<rect width="58.5278" height="58.5278" fill="white" transform="translate(16.125 22.0974)"/>
</clipPath>
</defs>
</svg>
